PathFileType	4	(X/Y/Z)	Patient4_TMGait_0pt4_03_left_30.trc.trc
DataRate	CameraRate	NumFrames	NumMarkers	Units	OrigDataRate	OrigDataStartFrame	OrigNumFrames
76.923076923077	76.923076923077	5	33	mm	76.923076923077	1	       141
Frame#	Time	Sacral			L.Shoulder			Chest			R.Shoulder			Neck			R.ASIS			L.ASIS			R.Thigh.Superior			R.Thigh.Lateral			R.Thigh.Inferior			R.Patella			L.Thigh.Superior			L.Thigh.Lateral			L.Thigh.Inferior			L.Patella			L.Shank.Superior			L.Shank.Lateral			L.Shank.Inferior			R.Shank.Superior			R.Shank.Lateral			R.Shank.Inferior			R.Heel			R.Midfoot.Superior			R.Midfoot.Lateral			R.Toe			L.Heel			L.Midfoot.Lateral			L.Midfoot.Superior			L.Toe			L.Elbow			L.Wrist			R.Elbow			R.Wrist			
		X1	Y1	Z1	X2	Y2	Z2	X3	Y3	Z3	X4	Y4	Z4	X5	Y5	Z5	X6	Y6	Z6	X7	Y7	Z7	X8	Y8	Z8	X9	Y9	Z9	X10	Y10	Z10	X11	Y11	Z11	X12	Y12	Z12	X13	Y13	Z13	X14	Y14	Z14	X15	Y15	Z15	X16	Y16	Z16	X17	Y17	Z17	X18	Y18	Z18	X19	Y19	Z19	X20	Y20	Z20	X21	Y21	Z21	X22	Y22	Z22	X23	Y23	Z23	X24	Y24	Z24	X25	Y25	Z25	X26	Y26	Z26	X27	Y27	Z27	X28	Y28	Z28	X29	Y29	Z29	X30	Y30	Z30	X31	Y31	Z31	X32	Y32	Z32	X33	Y33	Z33	

1	39.560000000000	851.502454384071	1002.576228511913	500.883305783721	1010.088810445567	1431.099502485387	303.033023658209	1128.552357029272	1364.818191346872	454.377464083931	1062.576395080550	1438.531394034347	635.628297180705	1012.100779420656	1495.366715011171	459.559228969991	1089.651051340736	942.910312819480	600.218509201573	1052.020712014089	963.240808991039	328.020797306750	1125.677747360744	739.306909962084	568.417877266507	1045.421035864703	631.131590480650	632.168558633913	1117.306175248814	578.059196276029	547.619772007507	1115.210376660347	490.091248779871	552.629283605962	1144.634704491758	788.828722226144	348.518046726024	1103.522949366823	660.367229626469	268.264686938618	1215.979707154303	606.140994575195	319.880406417204	1235.605602357742	518.987895586671	310.573214068647	1175.337460737835	446.358910008888	304.892002417869	1036.586855626277	389.657429870092	262.187247299601	1042.079990855766	257.344022883046	312.547539855444	1083.752380046640	401.254041284902	562.029672015710	1012.647681367154	300.328936452197	627.055150028262	1047.311413739874	203.935559232355	561.683766132840	909.562124177399	41.851137448914	536.029414041722	1079.277452208551	96.245877662344	570.155764651146	992.972806603979	36.824635137861	610.768324888530	1200.991610417063	45.742038029762	598.003915143957	863.187862225835	173.957403740970	359.406616552747	919.015807615130	134.885197636293	274.356097811654	1024.981054602704	150.455886490821	290.304540212413	1109.029440639892	45.440367122312	252.848636957631	938.273289163045	1081.475004041953	199.951594403401	979.421063302256	823.927368135618	177.216594182779	1105.056784899784	1103.971223708004	780.753086990792	1328.985030448648	980.640971207344	741.125572279789	
2	39.573000000000	850.510179059223	1003.543670054564	502.777470387612	1008.828626962196	1431.450668137345	304.074387093626	1128.718716430135	1364.623174070436	453.983330661427	1065.171087110257	1438.645242926730	635.956942794586	1012.630694055665	1495.598235645268	460.409417740002	1089.244913397889	942.566117068957	599.886347546302	1049.686673326063	963.753948716056	328.137306327757	1123.166927721001	738.744691747682	567.781115568998	1042.774087227507	631.088412224466	632.502927011162	1113.487944970140	577.471091875199	547.466499063147	1110.857990910620	489.623018492983	552.650608108599	1142.760827710865	790.523699831398	348.760313936988	1102.911366214487	661.882396296119	268.379953626716	1215.291333769013	608.381523136406	320.671192631059	1236.142383460285	522.489727480110	310.811696045627	1179.255881875049	449.079065985147	304.220126598673	1044.285040131613	385.218047751334	261.984080324633	1058.256999618145	253.526237557503	310.555922736220	1079.298065872309	401.087365808208	562.202769944687	1007.994898360376	300.225598624168	627.284965321659	1042.170892431080	203.845734962520	561.793383306406	904.033520225588	41.907859452871	536.092031270465	1073.810647593131	96.174875802079	570.197453888843	987.454520142219	36.810036966137	610.814638022663	1195.484632427133	45.497828030676	598.063618474255	886.490220655518	158.998614793357	358.016994729317	943.234883412453	124.697121990821	271.974973517580	1047.438942631132	146.792882760610	287.212657286280	1137.060115481213	48.593528608355	247.623407780940	930.393388003423	1083.460682409632	201.770818260674	964.516412465605	825.100404804105	180.943659928662	1112.731163928160	1104.964408531749	780.111282942906	1340.506578730206	995.045314762944	735.016222982854	
3	39.586000000000	849.522925013755	1004.493617742675	504.618278512988	1007.610074629272	1431.784749913921	305.073435699503	1128.896193799709	1364.399797096040	453.560921492808	1067.753708754461	1438.720108092711	636.247281464429	1013.177407365880	1495.807287306788	461.219041283029	1088.828054051499	942.210506644759	599.532772829122	1047.381313538775	964.226652313301	328.219689234243	1120.676268695125	738.179055084660	567.143334562327	1040.152315469656	631.036437307061	632.820669745819	1109.708153189585	576.885690284306	547.306821868218	1106.546027234586	489.157626944581	552.671618947514	1140.810110926936	792.097047033790	349.011678249588	1102.205965559971	663.313428428704	268.470988344762	1214.432663439708	610.480589268533	321.535829634467	1236.530033422532	525.890275645831	311.100341790781	1183.033521425842	451.744852226944	303.604293939055	1052.018073050532	380.772814701618	261.677955042571	1074.383450858499	249.842882357893	308.578252072424	1074.884934391499	400.914112784458	562.370162102066	1003.384708657734	300.119976731577	627.506700059016	1037.073806786597	203.748345760337	561.896245031679	898.545072520505	41.961080659036	536.156281375895	1068.378455802786	96.098090857121	570.230234342448	981.977005770030	36.795571309419	610.863289013120	1190.020089843299	45.256437353011	598.122940080506	909.860411330057	144.307235667162	356.478278986050	967.531633455791	114.789215116419	269.519482901941	1069.866772434226	143.356073644844	284.166510912566	1164.976119692977	52.032198452497	242.572785503491	922.571161769807	1085.445698846451	203.622329369498	949.853627834837	826.312697797974	184.657601469360	1120.335282930361	1105.905258242192	779.393787778929	1351.747772348879	1009.319947843989	728.891329261332	
4	39.599000000000	848.553329816562	1005.405802256872	506.346309162729	1006.473139026565	1432.086990757544	305.979135693388	1129.092175983303	1364.127971784804	453.079014995721	1070.299860504572	1438.728119747259	636.453698161346	1013.751392188148	1495.976597744753	461.939195829683	1088.393555060413	941.837672327306	599.135375919649	1045.139348304534	964.629394820137	328.228528515952	1118.227377517781	737.607347982839	566.500813895043	1037.574137633567	630.969312149986	633.098744703087	1106.000002907542	576.305386750328	547.129386624982	1102.309024198213	488.697032584159	552.684162163324	1138.732999593756	793.441755079204	349.265221757016	1101.320735117982	664.576695701155	268.514751022728	1213.271915357796	612.305342509914	322.496365611702	1236.634443235115	529.085586877369	311.472071834486	1186.530398912506	454.299219104671	303.087677191491	1059.769434973999	376.359178312100	261.185725537571	1090.313600590212	246.442293553769	306.639770536277	1070.543567405095	400.726726993034	562.518138586668	998.848101887173	300.012070209157	627.707842776791	1032.054577234914	203.638311317880	561.984139038209	893.125769787529	42.009083232434	536.222706214685	1063.008331996802	96.015073989095	570.250242479484	976.570641738954	36.782458789215	610.916452453133	1184.628197072267	45.022556597673	598.181357971593	933.199020522175	130.219489378372	354.676110649317	991.824926205465	105.467647967925	266.957471043176	1092.100547166032	140.365352888634	281.236915051086	1192.510387286357	55.976400453127	237.920886357301	914.899946558412	1087.419197188126	205.520568169144	935.697051899525	827.590609488062	188.328810237982	1127.788567419055	1106.750354781346	778.505365435357	1362.415394233848	1023.312760385556	722.726418253187	
5	39.612000000000	847.610700720751	1006.265030351465	507.912091413151	1005.449093549993	1432.346518125250	306.746134193674	1129.312236952236	1363.793663359526	452.508761494108	1072.788943920833	1438.650428920811	636.535282892233	1014.360885215046	1496.094066446922	462.526657275265	1087.935679099792	941.443867387234	598.673561214798	1042.985365762134	964.942845070678	328.129374052393	1115.834411725758	737.025761571926	565.850820990253	1035.044985012189	630.882251674327	633.315239152218	1102.381138080509	575.729819094307	546.923401666295	1098.164496631999	488.241053440309	552.677580261257	1136.489249769476	794.480258764231	349.511586613244	1100.184700637852	665.611276062447	268.485575774699	1211.709489838346	613.758728507934	323.547769956209	1236.351605176200	532.003714277534	311.946165723835	1189.640012740038	456.704181749754	302.705473734525	1067.536719051853	372.025297445326	260.432099945275	1105.923265225703	243.459004583862	304.769710757006	1066.286647072685	400.519329968174	562.632269316113	994.395252325594	299.902552075403	627.876458145330	1027.125884362208	203.512125319641	562.050046080305	887.782313401577	42.050604140107	536.291337492978	1057.707277085091	95.926660329194	570.255050013106	971.242300782812	36.771134689137	610.974641215561	1179.315843858083	44.800393754432	598.238552665010	956.398778051275	117.036935096388	352.512538021117	1016.046518097686	96.993528369577	264.276470537995	1114.003522753927	138.007736782191	278.503386182176	1219.449399305117	60.599181611693	233.913860587767	907.453104497917	1089.371029691334	207.478766130297	922.232209594672	828.953543329682	191.930628270923	1135.038167335095	1107.468864833635	777.355307045810	1372.285861728620	1036.918672899867	716.483908393566	
